<svg width="66" height="86" viewBox="0 0 66 86" fill="none" xmlns="http://www.w3.org/2000/svg">
<path d="M49.7902 32.6397L49.7452 32.7183L49.7098 32.8015L39.5769 56.6075C37.3842 61.7594 30.0825 61.7612 27.887 56.6106L17.6609 32.6201L17.6287 32.5446L17.5887 32.4731C17.2716 31.905 16.9837 31.3187 16.727 30.716L16.7108 30.6781L16.6927 30.6412L16.6465 30.5469L16.4462 30.0175C15.678 27.9871 15.2568 25.7843 15.2568 23.4797C15.2568 13.2736 23.5304 5 33.7364 5C43.9424 5 52.2161 13.2736 52.2161 23.4797C52.2161 26.8158 51.3335 29.941 49.7902 32.6397Z" stroke="black" stroke-width="9"/>
<path d="M33.7363 31.2142C37.7383 31.2142 40.9824 27.97 40.9824 23.9681C40.9824 19.9662 37.7383 16.722 33.7363 16.722C29.7344 16.722 26.4902 19.9662 26.4902 23.9681C26.4902 27.97 29.7344 31.2142 33.7363 31.2142Z" fill="#09364A" stroke="black" stroke-width="9"/>
<path d="M45.4582 43.0178C38.3762 34.3719 26.2079 37.5018 22.0144 43.0178L31.0645 67.4066C31.9475 69.7865 35.3095 69.7981 36.2093 67.4244L45.4582 43.0178Z" fill="#09364A" stroke="black" stroke-width="9"/>
<path d="M47.8398 57.736C53.2922 59.2844 57.2697 61.5847 59.3539 64.1108C60.379 65.353 60.8852 66.5738 60.9875 67.7236C61.0892 68.8651 60.8041 70.0605 60.0359 71.2879C58.46 73.8048 54.977 76.2287 49.8288 77.9835C44.7281 79.7226 38.493 80.6309 32.1089 80.5375C25.7234 80.4441 19.6297 79.3548 14.7859 77.477C9.88921 75.5789 6.7945 73.0836 5.58791 70.597C5.00259 69.3905 4.86817 68.2088 5.12313 67.0587C5.38192 65.8911 6.06591 64.6541 7.2824 63.4137C9.74277 60.905 14.0625 58.7147 19.7141 57.327" stroke="black" stroke-width="9" stroke-linecap="round"/>
</svg>
