<svg width="390" height="337" viewBox="0 0 390 337" fill="none" xmlns="http://www.w3.org/2000/svg">
<circle cx="210.476" cy="104.162" r="71.7568" fill="#0E6994"/>
<rect x="0.0675752" y="5.69462" width="37.6091" height="71.6694" transform="matrix(0.7107 0.703495 -0.693807 0.720161 341.383 22.2887)" stroke="#323232" stroke-width="8"/>
<rect x="0.0675752" y="5.69462" width="94.6206" height="11.0099" rx="5.50496" transform="matrix(0.7107 0.703495 -0.693807 0.720161 320.428 1.54604)" stroke="#323232" stroke-width="8"/>
<rect x="0.0675752" y="5.69462" width="77.6515" height="202.508" rx="11" transform="matrix(0.7107 0.703495 -0.693807 0.720161 281.817 54.9997)" stroke="#323232" stroke-width="8"/>
<rect x="0.0675752" y="5.69462" width="77.6515" height="140.257" rx="6" transform="matrix(0.7107 0.703495 -0.693807 0.720161 238.627 99.8305)" stroke="#323232" stroke-width="8"/>
<path d="M154.468 212.834L182.547 240.628L163.244 260.664C160.945 263.051 157.172 263.096 154.817 260.764L135.266 241.412C132.911 239.081 132.866 235.256 135.165 232.87L154.468 212.834Z" stroke="#323232" stroke-width="8"/>
<path d="M141.47 255.627L73.6596 329" stroke="#323232" stroke-width="8" stroke-linecap="round"/>
<line x1="4" y1="-4" x2="44.4218" y2="-4" transform="matrix(-0.740733 -0.6718 0.661767 -0.749709 271.489 172.092)" stroke="#323232" stroke-width="8" stroke-linecap="round"/>
<line x1="4" y1="-4" x2="28.2557" y2="-4" transform="matrix(-0.702302 -0.711879 0.702302 -0.711879 246.948 198.881)" stroke="#323232" stroke-width="8" stroke-linecap="round"/>
<line x1="4" y1="-4" x2="44.4218" y2="-4" transform="matrix(-0.740733 -0.6718 0.661767 -0.749709 224.295 227.584)" stroke="#323232" stroke-width="8" stroke-linecap="round"/>
<path d="M35.6775 70.4948C37.7833 69.1143 37.1743 65.9316 36.6065 64.5128C39.2388 63.0173 43.884 60.9236 41.4066 64.5128C38.3098 68.9993 43.884 71.7602 41.4066 72.6805C38.9291 73.6008 33.0452 72.2203 35.6775 70.4948Z" fill="#696969"/>
<path d="M35.6775 70.4948C37.7833 69.1143 37.1743 65.9316 36.6065 64.5128C39.2388 63.0173 43.884 60.9236 41.4066 64.5128C38.3098 68.9993 43.884 71.7602 41.4066 72.6805C38.9291 73.6008 33.0452 72.2203 35.6775 70.4948Z" fill="url(#paint0_linear)"/>
<g filter="url(#filter0_i)">
<ellipse cx="39.1541" cy="64.3896" rx="6.50594" ry="2.38965" fill="#09364A"/>
</g>
<path d="M56.5333 75.451C59.327 75.589 61.9042 73.0162 62.8436 71.7126C66.1183 72.0478 71.3816 73.0249 66.2378 74.2521C59.808 75.7862 61.1403 80.6876 58.5187 80.0276C55.8972 79.3676 53.0412 75.2785 56.5333 75.451Z" fill="#696969"/>
<path d="M56.5333 75.451C59.327 75.589 61.9042 73.0162 62.8436 71.7126C66.1183 72.0478 71.3816 73.0249 66.2378 74.2521C59.808 75.7862 61.1403 80.6876 58.5187 80.0276C55.8972 79.3676 53.0412 75.2785 56.5333 75.451Z" fill="url(#paint1_linear)"/>
<g filter="url(#filter1_i)">
<ellipse rx="5.74555" ry="2.82054" transform="matrix(0.800688 0.599082 -0.800688 0.599082 64.7611 72.9733)" fill="#09364A"/>
</g>
<path d="M15.7691 80.5741C15.363 78.5015 11.4601 77.1562 9.55939 76.7426C9.31 74.2767 9.48208 70.2212 12.1655 73.7266C15.5197 78.1082 21.6449 76.1047 21.3328 78.161C21.0207 80.2173 16.2767 83.1649 15.7691 80.5741Z" fill="#696969"/>
<path d="M15.7691 80.5741C15.363 78.5015 11.4601 77.1562 9.55939 76.7426C9.31 74.2767 9.48208 70.2212 12.1655 73.7266C15.5197 78.1082 21.6449 76.1047 21.3328 78.161C21.0207 80.2173 16.2767 83.1649 15.7691 80.5741Z" fill="url(#paint2_linear)"/>
<g filter="url(#filter2_i)">
<ellipse rx="5.40255" ry="2.97942" transform="matrix(0.653812 -0.756657 0.90021 0.435455 10.8044 75.075)" fill="#09364A"/>
</g>
<path d="M65.3491 88.4662C66.9047 90.2078 71.2016 90.1697 73.1556 89.9329C74.7953 92.08 76.9661 95.7983 72.5317 93.4939C66.9888 90.6133 62.6055 94.3898 61.7079 92.4323C60.8104 90.4748 63.4045 86.2891 65.3491 88.4662Z" fill="#696969"/>
<path d="M65.3491 88.4662C66.9047 90.2078 71.2016 90.1697 73.1556 89.9329C74.7953 92.08 76.9661 95.7983 72.5317 93.4939C66.9888 90.6133 62.6055 94.3898 61.7079 92.4323C60.8104 90.4748 63.4045 86.2891 65.3491 88.4662Z" fill="url(#paint3_linear)"/>
<g filter="url(#filter3_i)">
<ellipse rx="4.90002" ry="3.18193" transform="matrix(-0.172567 0.984998 -0.995225 -0.0976088 72.9877 91.8389)" fill="#09364A"/>
</g>
<path d="M13.4385 93.5672C11.1372 92.3741 7.15877 93.5892 5.4572 94.3459C2.87891 92.7987 -0.963893 89.9358 4.29126 90.8621C10.8602 92.0199 13.0857 87.3035 14.8807 88.8781C16.6756 90.4527 16.3151 95.0586 13.4385 93.5672Z" fill="#696969"/>
<path d="M13.4385 93.5672C11.1372 92.3741 7.15877 93.5892 5.4572 94.3459C2.87891 92.7987 -0.963893 89.9358 4.29126 90.8621C10.8602 92.0199 13.0857 87.3035 14.8807 88.8781C16.6756 90.4527 16.3151 95.0586 13.4385 93.5672Z" fill="url(#paint4_linear)"/>
<g filter="url(#filter4_i)">
<ellipse rx="4.97943" ry="3.15208" transform="matrix(-0.317368 -0.948303 0.982898 -0.184149 4.6785 92.5269)" fill="#09364A"/>
</g>
<path d="M22.5214 104.821C19.7221 104.861 17.4451 107.587 16.6565 108.946C13.3557 108.819 8.00076 108.179 12.9873 106.63C19.2206 104.695 17.3387 99.8953 20.0255 100.387C22.7123 100.879 26.0205 104.772 22.5214 104.821Z" fill="#696969"/>
<path d="M22.5214 104.821C19.7221 104.861 17.4451 107.587 16.6565 108.946C13.3557 108.819 8.00076 108.179 12.9873 106.63C19.2206 104.695 17.3387 99.8953 20.0255 100.387C22.7123 100.879 26.0205 104.772 22.5214 104.821Z" fill="url(#paint5_linear)"/>
<g filter="url(#filter5_i)">
<ellipse rx="5.88067" ry="2.75261" transform="matrix(-0.845681 -0.533688 0.748079 -0.663609 14.603 107.811)" fill="#09364A"/>
</g>
<path d="M59.3758 102.114C59.2952 104.208 62.8271 106.039 64.6032 106.693C64.2772 109.154 63.1676 113.125 61.3374 109.325C59.0497 104.575 52.5529 105.753 53.337 103.768C54.1211 101.783 59.4764 99.4962 59.3758 102.114Z" fill="#696969"/>
<path d="M59.3758 102.114C59.2952 104.208 62.8271 106.039 64.6032 106.693C64.2772 109.154 63.1676 113.125 61.3374 109.325C59.0497 104.575 52.5529 105.753 53.337 103.768C54.1211 101.783 59.4764 99.4962 59.3758 102.114Z" fill="url(#paint6_linear)"/>
<g filter="url(#filter6_i)">
<ellipse rx="5.68504" ry="2.84994" transform="matrix(-0.778591 0.627532 -0.82132 -0.570468 62.9905 108.174)" fill="#09364A"/>
</g>
<path d="M41.921 109.158C39.8152 110.538 40.4242 113.721 40.992 115.14C38.3597 116.635 33.7145 118.729 36.1919 115.14C39.2887 110.653 33.7145 107.892 36.1919 106.972C38.6694 106.052 44.5533 107.432 41.921 109.158Z" fill="#696969"/>
<path d="M41.921 109.158C39.8152 110.538 40.4242 113.721 40.992 115.14C38.3597 116.635 33.7145 118.729 36.1919 115.14C39.2887 110.653 33.7145 107.892 36.1919 106.972C38.6694 106.052 44.5533 107.432 41.921 109.158Z" fill="url(#paint7_linear)"/>
<g filter="url(#filter7_i)">
<ellipse cx="38.4443" cy="115.262" rx="6.50593" ry="2.38965" transform="rotate(180 38.4443 115.262)" fill="#09364A"/>
</g>
<ellipse cx="39.1542" cy="89.5252" rx="25.4323" ry="19.0287" fill="#FFF074"/>
<ellipse cx="39.1542" cy="89.5252" rx="25.4323" ry="19.0287" fill="url(#paint8_radial)"/>
<path d="M295.678 290.257C297.725 288.915 297.133 285.821 296.581 284.442C299.139 282.989 303.655 280.954 301.247 284.442C298.236 288.803 303.655 291.487 301.247 292.381C298.838 293.276 293.119 291.934 295.678 290.257Z" fill="#696969"/>
<path d="M295.678 290.257C297.725 288.915 297.133 285.821 296.581 284.442C299.139 282.989 303.655 280.954 301.247 284.442C298.236 288.803 303.655 291.487 301.247 292.381C298.838 293.276 293.119 291.934 295.678 290.257Z" fill="url(#paint9_linear)"/>
<g filter="url(#filter8_i)">
<ellipse cx="299.057" cy="284.323" rx="6.32365" ry="2.32269" fill="#09364A"/>
</g>
<path d="M315.949 295.074C318.665 295.208 321.17 292.708 322.083 291.441C325.266 291.766 330.382 292.716 325.382 293.909C319.132 295.4 320.427 300.164 317.879 299.523C315.331 298.881 312.555 294.906 315.949 295.074Z" fill="#696969"/>
<path d="M315.949 295.074C318.665 295.208 321.17 292.708 322.083 291.441C325.266 291.766 330.382 292.716 325.382 293.909C319.132 295.4 320.427 300.164 317.879 299.523C315.331 298.881 312.555 294.906 315.949 295.074Z" fill="url(#paint10_linear)"/>
<g filter="url(#filter9_i)">
<ellipse rx="5.58457" ry="2.74151" transform="matrix(0.800688 0.599082 -0.800688 0.599082 323.947 292.666)" fill="#09364A"/>
</g>
<path d="M276.327 300.054C275.932 298.039 272.139 296.732 270.291 296.33C270.049 293.933 270.216 289.991 272.824 293.398C276.085 297.657 282.038 295.71 281.735 297.708C281.431 299.707 276.82 302.572 276.327 300.054Z" fill="#696969"/>
<path d="M276.327 300.054C275.932 298.039 272.139 296.732 270.291 296.33C270.049 293.933 270.216 289.991 272.824 293.398C276.085 297.657 282.038 295.71 281.735 297.708C281.431 299.707 276.82 302.572 276.327 300.054Z" fill="url(#paint11_linear)"/>
<g filter="url(#filter10_i)">
<ellipse rx="5.25118" ry="2.89594" transform="matrix(0.653812 -0.756657 0.90021 0.435455 271.502 294.709)" fill="#09364A"/>
</g>
<path d="M324.518 307.724C326.03 309.417 330.207 309.38 332.106 309.15C333.7 311.237 335.81 314.851 331.5 312.611C326.112 309.811 321.851 313.482 320.979 311.579C320.107 309.677 322.628 305.608 324.518 307.724Z" fill="#696969"/>
<path d="M324.518 307.724C326.03 309.417 330.207 309.38 332.106 309.15C333.7 311.237 335.81 314.851 331.5 312.611C326.112 309.811 321.851 313.482 320.979 311.579C320.107 309.677 322.628 305.608 324.518 307.724Z" fill="url(#paint12_linear)"/>
<g filter="url(#filter11_i)">
<ellipse rx="4.76273" ry="3.09277" transform="matrix(-0.172567 0.984998 -0.995225 -0.0976088 331.943 311.003)" fill="#09364A"/>
</g>
<path d="M274.062 312.683C271.825 311.523 267.958 312.704 266.304 313.44C263.798 311.936 260.063 309.153 265.171 310.053C271.556 311.179 273.719 306.595 275.464 308.125C277.208 309.655 276.858 314.132 274.062 312.683Z" fill="#696969"/>
<path d="M274.062 312.683C271.825 311.523 267.958 312.704 266.304 313.44C263.798 311.936 260.063 309.153 265.171 310.053C271.556 311.179 273.719 306.595 275.464 308.125C277.208 309.655 276.858 314.132 274.062 312.683Z" fill="url(#paint13_linear)"/>
<g filter="url(#filter12_i)">
<ellipse rx="4.83992" ry="3.06376" transform="matrix(-0.317368 -0.948303 0.982898 -0.184149 265.547 311.672)" fill="#09364A"/>
</g>
<path d="M282.89 323.622C280.17 323.66 277.956 326.31 277.19 327.631C273.982 327.508 268.777 326.885 273.624 325.38C279.682 323.499 277.853 318.834 280.464 319.312C283.076 319.789 286.291 323.574 282.89 323.622Z" fill="#696969"/>
<path d="M282.89 323.622C280.17 323.66 277.956 326.31 277.19 327.631C273.982 327.508 268.777 326.885 273.624 325.38C279.682 323.499 277.853 318.834 280.464 319.312C283.076 319.789 286.291 323.574 282.89 323.622Z" fill="url(#paint14_linear)"/>
<g filter="url(#filter13_i)">
<ellipse rx="5.7159" ry="2.67549" transform="matrix(-0.845681 -0.533688 0.748079 -0.663609 275.194 326.528)" fill="#09364A"/>
</g>
<path d="M318.712 320.989C318.634 323.025 322.067 324.805 323.793 325.44C323.476 327.832 322.398 331.693 320.619 327.999C318.395 323.381 312.08 324.527 312.842 322.598C313.604 320.668 318.81 318.445 318.712 320.989Z" fill="#696969"/>
<path d="M318.712 320.989C318.634 323.025 322.067 324.805 323.793 325.44C323.476 327.832 322.398 331.693 320.619 327.999C318.395 323.381 312.08 324.527 312.842 322.598C313.604 320.668 318.81 318.445 318.712 320.989Z" fill="url(#paint15_linear)"/>
<g filter="url(#filter14_i)">
<ellipse rx="5.52575" ry="2.77009" transform="matrix(-0.778591 0.627532 -0.82132 -0.570468 322.226 326.88)" fill="#09364A"/>
</g>
<path d="M301.746 327.836C299.7 329.178 300.292 332.271 300.843 333.65C298.285 335.104 293.77 337.139 296.178 333.65C299.188 329.29 293.77 326.606 296.178 325.712C298.586 324.817 304.305 326.159 301.746 327.836Z" fill="#696969"/>
<path d="M301.746 327.836C299.7 329.178 300.292 332.271 300.843 333.65C298.285 335.104 293.77 337.139 296.178 333.65C299.188 329.29 293.77 326.606 296.178 325.712C298.586 324.817 304.305 326.159 301.746 327.836Z" fill="url(#paint16_linear)"/>
<g filter="url(#filter15_i)">
<ellipse cx="298.367" cy="333.77" rx="6.32365" ry="2.32269" transform="rotate(180 298.367 333.77)" fill="#09364A"/>
</g>
<ellipse cx="299.057" cy="308.754" rx="24.7197" ry="18.4955" fill="#FFF074"/>
<ellipse cx="299.057" cy="308.754" rx="24.7197" ry="18.4955" fill="url(#paint17_radial)"/>
<defs>
<filter id="filter0_i" x="32.6482" y="53" width="13.0119" height="13.7793" filterUnits="userSpaceOnUse" color-interpolation-filters="sRGB">
<feFlood flood-opacity="0" result="BackgroundImageFix"/>
<feBlend mode="normal" in="SourceGraphic" in2="BackgroundImageFix" result="shape"/>
<feColorMatrix in="SourceAlpha" type="matrix" values="0 0 0 0 0 0 0 0 0 0 0 0 0 0 0 0 0 0 127 0" result="hardAlpha"/>
<feOffset dy="-10"/>
<feGaussianBlur stdDeviation="4.5"/>
<feComposite in2="hardAlpha" operator="arithmetic" k2="-1" k3="1"/>
<feColorMatrix type="matrix" values="0 0 0 0 0.0117647 0 0 0 0 0.141176 0 0 0 0 0.196078 0 0 0 1 0"/>
<feBlend mode="normal" in2="shape" result="effect1_innerShadow"/>
</filter>
<filter id="filter1_i" x="59.6352" y="60.1379" width="10.252" height="16.6706" filterUnits="userSpaceOnUse" color-interpolation-filters="sRGB">
<feFlood flood-opacity="0" result="BackgroundImageFix"/>
<feBlend mode="normal" in="SourceGraphic" in2="BackgroundImageFix" result="shape"/>
<feColorMatrix in="SourceAlpha" type="matrix" values="0 0 0 0 0 0 0 0 0 0 0 0 0 0 0 0 0 0 127 0" result="hardAlpha"/>
<feOffset dy="-10"/>
<feGaussianBlur stdDeviation="4.5"/>
<feComposite in2="hardAlpha" operator="arithmetic" k2="-1" k3="1"/>
<feColorMatrix type="matrix" values="0 0 0 0 0.0122396 0 0 0 0 0.139343 0 0 0 0 0.195833 0 0 0 1 0"/>
<feBlend mode="normal" in2="shape" result="effect1_innerShadow"/>
</filter>
<filter id="filter2_i" x="6.36908" y="61.7849" width="8.87077" height="17.5799" filterUnits="userSpaceOnUse" color-interpolation-filters="sRGB">
<feFlood flood-opacity="0" result="BackgroundImageFix"/>
<feBlend mode="normal" in="SourceGraphic" in2="BackgroundImageFix" result="shape"/>
<feColorMatrix in="SourceAlpha" type="matrix" values="0 0 0 0 0 0 0 0 0 0 0 0 0 0 0 0 0 0 127 0" result="hardAlpha"/>
<feOffset dy="-10"/>
<feGaussianBlur stdDeviation="4.5"/>
<feComposite in2="hardAlpha" operator="arithmetic" k2="-1" k3="1"/>
<feColorMatrix type="matrix" values="0 0 0 0 0.0117647 0 0 0 0 0.141176 0 0 0 0 0.196078 0 0 0 1 0"/>
<feBlend mode="normal" in2="shape" result="effect1_innerShadow"/>
</filter>
<filter id="filter3_i" x="69.7092" y="78.0022" width="6.55699" height="18.6733" filterUnits="userSpaceOnUse" color-interpolation-filters="sRGB">
<feFlood flood-opacity="0" result="BackgroundImageFix"/>
<feBlend mode="normal" in="SourceGraphic" in2="BackgroundImageFix" result="shape"/>
<feColorMatrix in="SourceAlpha" type="matrix" values="0 0 0 0 0 0 0 0 0 0 0 0 0 0 0 0 0 0 127 0" result="hardAlpha"/>
<feOffset dy="-10"/>
<feGaussianBlur stdDeviation="4.5"/>
<feComposite in2="hardAlpha" operator="arithmetic" k2="-1" k3="1"/>
<feColorMatrix type="matrix" values="0 0 0 0 0.0117647 0 0 0 0 0.141176 0 0 0 0 0.196078 0 0 0 1 0"/>
<feBlend mode="normal" in2="shape" result="effect1_innerShadow"/>
</filter>
<filter id="filter4_i" x="1.19983" y="78.7688" width="6.95735" height="18.5161" filterUnits="userSpaceOnUse" color-interpolation-filters="sRGB">
<feFlood flood-opacity="0" result="BackgroundImageFix"/>
<feBlend mode="normal" in="SourceGraphic" in2="BackgroundImageFix" result="shape"/>
<feColorMatrix in="SourceAlpha" type="matrix" values="0 0 0 0 0 0 0 0 0 0 0 0 0 0 0 0 0 0 127 0" result="hardAlpha"/>
<feOffset dy="-10"/>
<feGaussianBlur stdDeviation="4.5"/>
<feComposite in2="hardAlpha" operator="arithmetic" k2="-1" k3="1"/>
<feColorMatrix type="matrix" values="0 0 0 0 0.0117647 0 0 0 0 0.141176 0 0 0 0 0.196078 0 0 0 1 0"/>
<feBlend mode="normal" in2="shape" result="effect1_innerShadow"/>
</filter>
<filter id="filter5_i" x="9.21893" y="95.1792" width="10.7681" height="16.2638" filterUnits="userSpaceOnUse" color-interpolation-filters="sRGB">
<feFlood flood-opacity="0" result="BackgroundImageFix"/>
<feBlend mode="normal" in="SourceGraphic" in2="BackgroundImageFix" result="shape"/>
<feColorMatrix in="SourceAlpha" type="matrix" values="0 0 0 0 0 0 0 0 0 0 0 0 0 0 0 0 0 0 127 0" result="hardAlpha"/>
<feOffset dy="-10"/>
<feGaussianBlur stdDeviation="4.5"/>
<feComposite in2="hardAlpha" operator="arithmetic" k2="-1" k3="1"/>
<feColorMatrix type="matrix" values="0 0 0 0 0.0117647 0 0 0 0 0.141176 0 0 0 0 0.196078 0 0 0 1 0"/>
<feBlend mode="normal" in2="shape" result="effect1_innerShadow"/>
</filter>
<filter id="filter6_i" x="57.9824" y="95.2522" width="10.0162" height="16.843" filterUnits="userSpaceOnUse" color-interpolation-filters="sRGB">
<feFlood flood-opacity="0" result="BackgroundImageFix"/>
<feBlend mode="normal" in="SourceGraphic" in2="BackgroundImageFix" result="shape"/>
<feColorMatrix in="SourceAlpha" type="matrix" values="0 0 0 0 0 0 0 0 0 0 0 0 0 0 0 0 0 0 127 0" result="hardAlpha"/>
<feOffset dy="-10"/>
<feGaussianBlur stdDeviation="4.5"/>
<feComposite in2="hardAlpha" operator="arithmetic" k2="-1" k3="1"/>
<feColorMatrix type="matrix" values="0 0 0 0 0.0117647 0 0 0 0 0.141176 0 0 0 0 0.196078 0 0 0 1 0"/>
<feBlend mode="normal" in2="shape" result="effect1_innerShadow"/>
</filter>
<filter id="filter7_i" x="31.9384" y="103.873" width="13.0119" height="13.7793" filterUnits="userSpaceOnUse" color-interpolation-filters="sRGB">
<feFlood flood-opacity="0" result="BackgroundImageFix"/>
<feBlend mode="normal" in="SourceGraphic" in2="BackgroundImageFix" result="shape"/>
<feColorMatrix in="SourceAlpha" type="matrix" values="0 0 0 0 0 0 0 0 0 0 0 0 0 0 0 0 0 0 127 0" result="hardAlpha"/>
<feOffset dy="-10"/>
<feGaussianBlur stdDeviation="4.5"/>
<feComposite in2="hardAlpha" operator="arithmetic" k2="-1" k3="1"/>
<feColorMatrix type="matrix" values="0 0 0 0 0.0117647 0 0 0 0 0.141176 0 0 0 0 0.196078 0 0 0 1 0"/>
<feBlend mode="normal" in2="shape" result="effect1_innerShadow"/>
</filter>
<filter id="filter8_i" x="292.733" y="273" width="12.6473" height="13.6454" filterUnits="userSpaceOnUse" color-interpolation-filters="sRGB">
<feFlood flood-opacity="0" result="BackgroundImageFix"/>
<feBlend mode="normal" in="SourceGraphic" in2="BackgroundImageFix" result="shape"/>
<feColorMatrix in="SourceAlpha" type="matrix" values="0 0 0 0 0 0 0 0 0 0 0 0 0 0 0 0 0 0 127 0" result="hardAlpha"/>
<feOffset dy="-10"/>
<feGaussianBlur stdDeviation="4.5"/>
<feComposite in2="hardAlpha" operator="arithmetic" k2="-1" k3="1"/>
<feColorMatrix type="matrix" values="0 0 0 0 0.0117647 0 0 0 0 0.141176 0 0 0 0 0.196078 0 0 0 1 0"/>
<feBlend mode="normal" in2="shape" result="effect1_innerShadow"/>
</filter>
<filter id="filter9_i" x="318.964" y="279.938" width="9.96471" height="16.4557" filterUnits="userSpaceOnUse" color-interpolation-filters="sRGB">
<feFlood flood-opacity="0" result="BackgroundImageFix"/>
<feBlend mode="normal" in="SourceGraphic" in2="BackgroundImageFix" result="shape"/>
<feColorMatrix in="SourceAlpha" type="matrix" values="0 0 0 0 0 0 0 0 0 0 0 0 0 0 0 0 0 0 127 0" result="hardAlpha"/>
<feOffset dy="-10"/>
<feGaussianBlur stdDeviation="4.5"/>
<feComposite in2="hardAlpha" operator="arithmetic" k2="-1" k3="1"/>
<feColorMatrix type="matrix" values="0 0 0 0 0.0122396 0 0 0 0 0.139343 0 0 0 0 0.195833 0 0 0 1 0"/>
<feBlend mode="normal" in2="shape" result="effect1_innerShadow"/>
</filter>
<filter id="filter10_i" x="267.19" y="281.539" width="8.62222" height="17.3396" filterUnits="userSpaceOnUse" color-interpolation-filters="sRGB">
<feFlood flood-opacity="0" result="BackgroundImageFix"/>
<feBlend mode="normal" in="SourceGraphic" in2="BackgroundImageFix" result="shape"/>
<feColorMatrix in="SourceAlpha" type="matrix" values="0 0 0 0 0 0 0 0 0 0 0 0 0 0 0 0 0 0 127 0" result="hardAlpha"/>
<feOffset dy="-10"/>
<feGaussianBlur stdDeviation="4.5"/>
<feComposite in2="hardAlpha" operator="arithmetic" k2="-1" k3="1"/>
<feColorMatrix type="matrix" values="0 0 0 0 0.0117647 0 0 0 0 0.141176 0 0 0 0 0.196078 0 0 0 1 0"/>
<feBlend mode="normal" in2="shape" result="effect1_innerShadow"/>
</filter>
<filter id="filter11_i" x="328.756" y="297.302" width="6.37327" height="18.4023" filterUnits="userSpaceOnUse" color-interpolation-filters="sRGB">
<feFlood flood-opacity="0" result="BackgroundImageFix"/>
<feBlend mode="normal" in="SourceGraphic" in2="BackgroundImageFix" result="shape"/>
<feColorMatrix in="SourceAlpha" type="matrix" values="0 0 0 0 0 0 0 0 0 0 0 0 0 0 0 0 0 0 127 0" result="hardAlpha"/>
<feOffset dy="-10"/>
<feGaussianBlur stdDeviation="4.5"/>
<feComposite in2="hardAlpha" operator="arithmetic" k2="-1" k3="1"/>
<feColorMatrix type="matrix" values="0 0 0 0 0.0117647 0 0 0 0 0.141176 0 0 0 0 0.196078 0 0 0 1 0"/>
<feBlend mode="normal" in2="shape" result="effect1_innerShadow"/>
</filter>
<filter id="filter12_i" x="262.166" y="298.047" width="6.76242" height="18.2495" filterUnits="userSpaceOnUse" color-interpolation-filters="sRGB">
<feFlood flood-opacity="0" result="BackgroundImageFix"/>
<feBlend mode="normal" in="SourceGraphic" in2="BackgroundImageFix" result="shape"/>
<feColorMatrix in="SourceAlpha" type="matrix" values="0 0 0 0 0 0 0 0 0 0 0 0 0 0 0 0 0 0 127 0" result="hardAlpha"/>
<feOffset dy="-10"/>
<feGaussianBlur stdDeviation="4.5"/>
<feComposite in2="hardAlpha" operator="arithmetic" k2="-1" k3="1"/>
<feColorMatrix type="matrix" values="0 0 0 0 0.0117647 0 0 0 0 0.141176 0 0 0 0 0.196078 0 0 0 1 0"/>
<feBlend mode="normal" in2="shape" result="effect1_innerShadow"/>
</filter>
<filter id="filter13_i" x="269.961" y="313.997" width="10.4664" height="16.0603" filterUnits="userSpaceOnUse" color-interpolation-filters="sRGB">
<feFlood flood-opacity="0" result="BackgroundImageFix"/>
<feBlend mode="normal" in="SourceGraphic" in2="BackgroundImageFix" result="shape"/>
<feColorMatrix in="SourceAlpha" type="matrix" values="0 0 0 0 0 0 0 0 0 0 0 0 0 0 0 0 0 0 127 0" result="hardAlpha"/>
<feOffset dy="-10"/>
<feGaussianBlur stdDeviation="4.5"/>
<feComposite in2="hardAlpha" operator="arithmetic" k2="-1" k3="1"/>
<feColorMatrix type="matrix" values="0 0 0 0 0.0117647 0 0 0 0 0.141176 0 0 0 0 0.196078 0 0 0 1 0"/>
<feBlend mode="normal" in2="shape" result="effect1_innerShadow"/>
</filter>
<filter id="filter14_i" x="317.358" y="314.068" width="9.7356" height="16.6232" filterUnits="userSpaceOnUse" color-interpolation-filters="sRGB">
<feFlood flood-opacity="0" result="BackgroundImageFix"/>
<feBlend mode="normal" in="SourceGraphic" in2="BackgroundImageFix" result="shape"/>
<feColorMatrix in="SourceAlpha" type="matrix" values="0 0 0 0 0 0 0 0 0 0 0 0 0 0 0 0 0 0 127 0" result="hardAlpha"/>
<feOffset dy="-10"/>
<feGaussianBlur stdDeviation="4.5"/>
<feComposite in2="hardAlpha" operator="arithmetic" k2="-1" k3="1"/>
<feColorMatrix type="matrix" values="0 0 0 0 0.0117647 0 0 0 0 0.141176 0 0 0 0 0.196078 0 0 0 1 0"/>
<feBlend mode="normal" in2="shape" result="effect1_innerShadow"/>
</filter>
<filter id="filter15_i" x="292.043" y="322.448" width="12.6473" height="13.6454" filterUnits="userSpaceOnUse" color-interpolation-filters="sRGB">
<feFlood flood-opacity="0" result="BackgroundImageFix"/>
<feBlend mode="normal" in="SourceGraphic" in2="BackgroundImageFix" result="shape"/>
<feColorMatrix in="SourceAlpha" type="matrix" values="0 0 0 0 0 0 0 0 0 0 0 0 0 0 0 0 0 0 127 0" result="hardAlpha"/>
<feOffset dy="-10"/>
<feGaussianBlur stdDeviation="4.5"/>
<feComposite in2="hardAlpha" operator="arithmetic" k2="-1" k3="1"/>
<feColorMatrix type="matrix" values="0 0 0 0 0.0117647 0 0 0 0 0.141176 0 0 0 0 0.196078 0 0 0 1 0"/>
<feBlend mode="normal" in2="shape" result="effect1_innerShadow"/>
</filter>
<linearGradient id="paint0_linear" x1="38.6194" y1="59.7962" x2="38.6194" y2="70.4948" gradientUnits="userSpaceOnUse">
<stop/>
<stop offset="1" stop-color="#0E4C69"/>
</linearGradient>
<linearGradient id="paint1_linear" x1="68.7244" y1="69.4425" x2="61.4669" y2="79.1423" gradientUnits="userSpaceOnUse">
<stop/>
<stop offset="1" stop-color="#0E4C69"/>
</linearGradient>
<linearGradient id="paint2_linear" x1="5.35845" y1="72.9171" x2="15.1069" y2="81.3405" gradientUnits="userSpaceOnUse">
<stop/>
<stop offset="1" stop-color="#0E4C69"/>
</linearGradient>
<linearGradient id="paint3_linear" x1="79.1443" y1="92.0392" x2="65.1525" y2="89.5879" gradientUnits="userSpaceOnUse">
<stop/>
<stop offset="1" stop-color="#0E4C69"/>
</linearGradient>
<linearGradient id="paint4_linear" x1="-1.14674" y1="94.0306" x2="12.1089" y2="89.5944" gradientUnits="userSpaceOnUse">
<stop/>
<stop offset="1" stop-color="#0E4C69"/>
</linearGradient>
<linearGradient id="paint5_linear" x1="11.0536" y1="111.58" x2="17.3703" y2="101.571" gradientUnits="userSpaceOnUse">
<stop/>
<stop offset="1" stop-color="#0E4C69"/>
</linearGradient>
<linearGradient id="paint6_linear" x1="67.8536" y1="111.006" x2="60.1705" y2="101.473" gradientUnits="userSpaceOnUse">
<stop/>
<stop offset="1" stop-color="#0E4C69"/>
</linearGradient>
<linearGradient id="paint7_linear" x1="38.9791" y1="119.856" x2="38.9791" y2="109.158" gradientUnits="userSpaceOnUse">
<stop/>
<stop offset="1" stop-color="#0E4C69"/>
</linearGradient>
<radialGradient id="paint8_radial" cx="0" cy="0" r="1" gradientUnits="userSpaceOnUse" gradientTransform="translate(42.7621 91.6936) rotate(-112.952) scale(21.3855 26.669)">
<stop stop-color="#0D4F6E"/>
<stop offset="0.927083" stop-color="#0E374B"/>
</radialGradient>
<linearGradient id="paint9_linear" x1="298.537" y1="279.858" x2="298.537" y2="290.257" gradientUnits="userSpaceOnUse">
<stop/>
<stop offset="1" stop-color="#0E4C69"/>
</linearGradient>
<linearGradient id="paint10_linear" x1="327.799" y1="289.234" x2="320.745" y2="298.662" gradientUnits="userSpaceOnUse">
<stop/>
<stop offset="1" stop-color="#0E4C69"/>
</linearGradient>
<linearGradient id="paint11_linear" x1="266.208" y1="292.611" x2="275.683" y2="300.799" gradientUnits="userSpaceOnUse">
<stop/>
<stop offset="1" stop-color="#0E4C69"/>
</linearGradient>
<linearGradient id="paint12_linear" x1="337.927" y1="311.197" x2="324.327" y2="308.815" gradientUnits="userSpaceOnUse">
<stop/>
<stop offset="1" stop-color="#0E4C69"/>
</linearGradient>
<linearGradient id="paint13_linear" x1="259.885" y1="313.133" x2="272.77" y2="308.821" gradientUnits="userSpaceOnUse">
<stop/>
<stop offset="1" stop-color="#0E4C69"/>
</linearGradient>
<linearGradient id="paint14_linear" x1="271.744" y1="330.191" x2="277.884" y2="320.462" gradientUnits="userSpaceOnUse">
<stop/>
<stop offset="1" stop-color="#0E4C69"/>
</linearGradient>
<linearGradient id="paint15_linear" x1="326.952" y1="329.632" x2="319.484" y2="320.367" gradientUnits="userSpaceOnUse">
<stop/>
<stop offset="1" stop-color="#0E4C69"/>
</linearGradient>
<linearGradient id="paint16_linear" x1="298.887" y1="338.235" x2="298.887" y2="327.836" gradientUnits="userSpaceOnUse">
<stop/>
<stop offset="1" stop-color="#0E4C69"/>
</linearGradient>
<radialGradient id="paint17_radial" cx="0" cy="0" r="1" gradientUnits="userSpaceOnUse" gradientTransform="translate(302.564 310.861) rotate(-112.952) scale(20.7863 25.9218)">
<stop stop-color="#0D4F6E"/>
<stop offset="0.927083" stop-color="#0E374B"/>
</radialGradient>
</defs>
</svg>
